# MagicaVoxel @ Ephtracy

# group
g NPC

# material
mtllib NPC.mtl
usemtl palette

# normals
vn -1 0 0
vn 1 0 0
vn 0 0 1
vn 0 0 -1
vn 0 -1 0
vn 0 1 0

# texcoords
vt 0.00195313 0.5
vt 0.0332031 0.5
vt 0.0605469 0.5
vt 0.0839844 0.5
vt 0.142578 0.5
vt 0.181641 0.5
vt 0.521484 0.5
vt 0.611328 0.5
vt 0.634766 0.5
vt 0.646484 0.5
vt 0.841797 0.5
vt 0.958984 0.5
vt 0.962891 0.5
vt 0.986328 0.5
vt 0.994141 0.5

# verts
v -4 4 -1
v -4 4 -2
v -4 5 1
v -4 5 -1
v -4 5 -2
v -4 6 1
v -4 6 -1
v -4 11 4
v -4 11 -3
v -4 12 4
v -4 12 -3
v -3 1 3
v -3 1 -2
v -3 4 -1
v -3 4 -2
v -3 4 -3
v -3 5 1
v -3 5 -1
v -3 5 -2
v -3 5 -3
v -3 6 1
v -3 6 -1
v -3 7 3
v -3 7 -2
v -3 11 3
v -3 11 -2
v -3 12 3
v -3 12 -2
v -3 13 3
v -3 13 -2
v -2 0 1
v -2 0 -0
v -2 1 1
v -2 1 -0
v -2 5 4
v -2 5 3
v -2 7 4
v -2 7 3
v -2 13 2
v -2 13 -1
v -2 14 2
v -2 14 -1
v -1 4 4
v -1 4 3
v -1 5 4
v -1 5 3
v -1 7 4
v -1 7 3
v -1 8 4
v -1 8 3
v 1 0 1
v 1 0 -0
v 1 1 1
v 1 1 -0
v 1 4 -2
v 1 4 -3
v 1 5 -2
v 1 5 -3
v 1 6 4
v 1 6 3
v 1 7 4
v 1 7 3
v -1 0 1
v -1 0 -0
v -1 1 1
v -1 1 -0
v -1 4 -2
v -1 4 -3
v -1 5 -2
v -1 5 -3
v -1 6 4
v -1 6 3
v -1 7 4
v -1 7 3
v 1 4 4
v 1 4 3
v 1 5 4
v 1 5 3
v 1 7 4
v 1 7 3
v 1 8 4
v 1 8 3
v 2 0 1
v 2 0 -0
v 2 1 1
v 2 1 -0
v 2 5 4
v 2 5 3
v 2 7 4
v 2 7 3
v 2 13 2
v 2 13 -1
v 2 14 2
v 2 14 -1
v 3 1 3
v 3 1 -2
v 3 4 -1
v 3 4 -2
v 3 4 -3
v 3 5 1
v 3 5 -1
v 3 5 -2
v 3 5 -3
v 3 6 1
v 3 6 -1
v 3 7 3
v 3 7 -2
v 3 11 3
v 3 11 -2
v 3 12 3
v 3 12 -2
v 3 13 3
v 3 13 -2
v 4 4 -1
v 4 4 -2
v 4 5 1
v 4 5 -1
v 4 5 -2
v 4 6 1
v 4 6 -1
v 4 11 4
v 4 11 -3
v 4 12 4
v 4 12 -3
v -4 11 4
v -4 12 4
v -2 5 4
v -2 7 4
v -1 4 4
v -1 5 4
v -1 6 4
v -1 7 4
v -1 8 4
v 1 4 4
v 1 5 4
v 1 6 4
v 1 7 4
v 1 8 4
v 2 5 4
v 2 7 4
v 4 11 4
v 4 12 4
v -3 1 3
v -3 7 3
v -3 11 3
v -3 12 3
v -3 13 3
v -2 5 3
v -2 7 3
v -2 8 3
v -2 9 3
v -2 10 3
v -1 4 3
v -1 5 3
v -1 6 3
v -1 7 3
v -1 8 3
v -1 9 3
v -1 10 3
v 1 4 3
v 1 5 3
v 1 6 3
v 1 7 3
v 1 8 3
v 1 9 3
v 1 10 3
v 2 5 3
v 2 7 3
v 2 8 3
v 2 9 3
v 2 10 3
v 3 1 3
v 3 7 3
v 3 11 3
v 3 12 3
v 3 13 3
v -2 13 2
v -2 14 2
v 2 13 2
v 2 14 2
v -4 5 1
v -4 6 1
v -3 5 1
v -3 6 1
v -2 0 1
v -2 1 1
v -1 0 1
v -1 1 1
v 1 0 1
v 1 1 1
v 2 0 1
v 2 1 1
v 3 5 1
v 3 6 1
v 4 5 1
v 4 6 1
v -4 4 -1
v -4 5 -1
v -3 4 -1
v -3 5 -1
v 3 4 -1
v 3 5 -1
v 4 4 -1
v 4 5 -1
v -2 0 -0
v -2 1 -0
v -1 0 -0
v -1 1 -0
v 1 0 -0
v 1 1 -0
v 2 0 -0
v 2 1 -0
v -4 5 -1
v -4 6 -1
v -3 5 -1
v -3 6 -1
v -2 13 -1
v -2 14 -1
v 2 13 -1
v 2 14 -1
v 3 5 -1
v 3 6 -1
v 4 5 -1
v 4 6 -1
v -4 4 -2
v -4 5 -2
v -3 1 -2
v -3 4 -2
v -3 5 -2
v -3 7 -2
v -3 11 -2
v -3 12 -2
v -3 13 -2
v -1 4 -2
v -1 5 -2
v 1 4 -2
v 1 5 -2
v 3 1 -2
v 3 4 -2
v 3 5 -2
v 3 7 -2
v 3 11 -2
v 3 12 -2
v 3 13 -2
v 4 4 -2
v 4 5 -2
v -4 11 -3
v -4 12 -3
v -3 4 -3
v -3 5 -3
v -1 4 -3
v -1 5 -3
v 1 4 -3
v 1 5 -3
v 3 4 -3
v 3 5 -3
v 4 11 -3
v 4 12 -3
v -2 0 1
v -1 0 1
v 1 0 1
v 2 0 1
v -2 0 -0
v -1 0 -0
v 1 0 -0
v 2 0 -0
v -3 1 3
v 3 1 3
v -2 1 1
v -1 1 1
v 1 1 1
v 2 1 1
v -2 1 -0
v -1 1 -0
v 1 1 -0
v 2 1 -0
v -3 1 -2
v 3 1 -2
v -1 4 4
v 1 4 4
v -1 4 3
v 1 4 3
v -4 4 -1
v -3 4 -1
v 3 4 -1
v 4 4 -1
v -4 4 -2
v -3 4 -2
v -1 4 -2
v 1 4 -2
v 3 4 -2
v 4 4 -2
v -3 4 -3
v -1 4 -3
v 1 4 -3
v 3 4 -3
v -2 5 4
v -1 5 4
v 1 5 4
v 2 5 4
v -2 5 3
v -1 5 3
v 1 5 3
v 2 5 3
v -4 5 1
v -3 5 1
v 3 5 1
v 4 5 1
v -4 5 -1
v -3 5 -1
v 3 5 -1
v 4 5 -1
v -1 7 4
v 1 7 4
v -1 7 3
v 1 7 3
v -4 11 4
v 4 11 4
v -3 11 3
v 3 11 3
v -3 11 -2
v 3 11 -2
v -4 11 -3
v 4 11 -3
v -4 5 -1
v -3 5 -1
v 3 5 -1
v 4 5 -1
v -4 5 -2
v -3 5 -2
v -1 5 -2
v 1 5 -2
v 3 5 -2
v 4 5 -2
v -3 5 -3
v -1 5 -3
v 1 5 -3
v 3 5 -3
v -1 6 4
v 1 6 4
v -1 6 3
v 1 6 3
v -4 6 1
v -3 6 1
v 3 6 1
v 4 6 1
v -4 6 -1
v -3 6 -1
v 3 6 -1
v 4 6 -1
v -2 7 4
v -1 7 4
v 1 7 4
v 2 7 4
v -2 7 3
v -1 7 3
v 1 7 3
v 2 7 3
v -1 8 4
v 1 8 4
v -1 8 3
v 1 8 3
v -4 12 4
v 4 12 4
v -3 12 3
v 3 12 3
v -3 12 -2
v 3 12 -2
v -4 12 -3
v 4 12 -3
v -3 13 3
v 3 13 3
v -2 13 2
v 2 13 2
v -2 13 -1
v 2 13 -1
v -3 13 -2
v 3 13 -2
v -2 14 2
v 2 14 2
v -2 14 -1
v 2 14 -1

# faces
f 4/6/1 2/6/1 1/6/1
f 5/6/1 2/6/1 4/6/1
f 6/6/1 4/6/1 3/6/1
f 7/6/1 4/6/1 6/6/1
f 10/13/1 9/13/1 8/13/1
f 11/13/1 9/13/1 10/13/1
f 14/6/1 13/6/1 12/6/1
f 15/6/1 13/6/1 14/6/1
f 17/6/1 14/6/1 12/6/1
f 18/6/1 14/6/1 17/6/1
f 19/3/1 16/3/1 15/3/1
f 20/3/1 16/3/1 19/3/1
f 21/6/1 17/6/1 12/6/1
f 22/6/1 19/6/1 18/6/1
f 23/6/1 21/6/1 12/6/1
f 23/6/1 22/6/1 21/6/1
f 24/6/1 19/6/1 22/6/1
f 24/6/1 22/6/1 23/6/1
f 25/3/1 24/3/1 23/3/1
f 26/3/1 24/3/1 25/3/1
f 29/13/1 28/13/1 27/13/1
f 30/13/1 28/13/1 29/13/1
f 33/11/1 32/11/1 31/11/1
f 34/11/1 32/11/1 33/11/1
f 37/14/1 36/14/1 35/14/1
f 38/14/1 36/14/1 37/14/1
f 41/13/1 40/13/1 39/13/1
f 42/13/1 40/13/1 41/13/1
f 45/14/1 44/14/1 43/14/1
f 46/14/1 44/14/1 45/14/1
f 49/14/1 48/14/1 47/14/1
f 50/14/1 48/14/1 49/14/1
f 53/11/1 52/11/1 51/11/1
f 54/11/1 52/11/1 53/11/1
f 57/3/1 56/3/1 55/3/1
f 58/3/1 56/3/1 57/3/1
f 61/14/1 60/14/1 59/14/1
f 62/14/1 60/14/1 61/14/1
f 63/11/2 64/11/2 65/11/2
f 65/11/2 64/11/2 66/11/2
f 67/3/2 68/3/2 69/3/2
f 69/3/2 68/3/2 70/3/2
f 71/14/2 72/14/2 73/14/2
f 73/14/2 72/14/2 74/14/2
f 75/14/2 76/14/2 77/14/2
f 77/14/2 76/14/2 78/14/2
f 79/14/2 80/14/2 81/14/2
f 81/14/2 80/14/2 82/14/2
f 83/11/2 84/11/2 85/11/2
f 85/11/2 84/11/2 86/11/2
f 87/14/2 88/14/2 89/14/2
f 89/14/2 88/14/2 90/14/2
f 91/13/2 92/13/2 93/13/2
f 93/13/2 92/13/2 94/13/2
f 95/6/2 96/6/2 97/6/2
f 97/6/2 96/6/2 98/6/2
f 95/6/2 97/6/2 100/6/2
f 100/6/2 97/6/2 101/6/2
f 98/3/2 99/3/2 102/3/2
f 102/3/2 99/3/2 103/3/2
f 95/6/2 100/6/2 104/6/2
f 101/6/2 102/6/2 105/6/2
f 95/6/2 104/6/2 106/6/2
f 104/6/2 105/6/2 106/6/2
f 105/6/2 102/6/2 107/6/2
f 106/6/2 105/6/2 107/6/2
f 106/3/2 107/3/2 108/3/2
f 108/3/2 107/3/2 109/3/2
f 110/13/2 111/13/2 112/13/2
f 112/13/2 111/13/2 113/13/2
f 114/6/2 115/6/2 117/6/2
f 117/6/2 115/6/2 118/6/2
f 116/6/2 117/6/2 119/6/2
f 119/6/2 117/6/2 120/6/2
f 121/13/2 122/13/2 123/13/2
f 123/13/2 122/13/2 124/13/2
f 130/14/3 128/14/3 127/14/3
f 131/14/3 128/14/3 130/14/3
f 132/14/3 128/14/3 131/14/3
f 134/14/3 130/14/3 129/14/3
f 134/14/3 131/14/3 130/14/3
f 135/14/3 131/14/3 134/14/3
f 136/14/3 131/14/3 135/14/3
f 137/14/3 133/14/3 132/14/3
f 138/14/3 133/14/3 137/14/3
f 139/14/3 136/14/3 135/14/3
f 139/14/3 137/14/3 136/14/3
f 140/14/3 137/14/3 139/14/3
f 141/13/3 126/13/3 125/13/3
f 142/13/3 126/13/3 141/13/3
f 148/6/3 144/6/3 143/6/3
f 149/3/3 145/3/3 144/3/3
f 149/6/3 144/6/3 148/6/3
f 150/3/3 145/3/3 149/3/3
f 151/3/3 145/3/3 150/3/3
f 152/3/3 145/3/3 151/3/3
f 153/6/3 148/6/3 143/6/3
f 154/6/3 148/6/3 153/6/3
f 156/3/3 150/3/3 149/3/3
f 157/15/3 151/15/3 150/15/3
f 157/3/3 150/3/3 156/3/3
f 158/12/3 152/12/3 151/12/3
f 158/15/3 151/15/3 157/15/3
f 159/3/3 145/3/3 152/3/3
f 159/12/3 152/12/3 158/12/3
f 160/6/3 153/6/3 143/6/3
f 162/4/3 156/4/3 155/4/3
f 163/4/3 156/4/3 162/4/3
f 164/3/3 158/3/3 157/3/3
f 164/3/3 159/3/3 158/3/3
f 165/3/3 159/3/3 164/3/3
f 166/3/3 145/3/3 159/3/3
f 166/3/3 159/3/3 165/3/3
f 167/6/3 161/6/3 160/6/3
f 168/3/3 164/3/3 163/3/3
f 169/15/3 165/15/3 164/15/3
f 169/3/3 164/3/3 168/3/3
f 170/12/3 166/12/3 165/12/3
f 170/15/3 165/15/3 169/15/3
f 171/3/3 145/3/3 166/3/3
f 171/12/3 166/12/3 170/12/3
f 172/6/3 168/6/3 167/6/3
f 172/6/3 160/6/3 143/6/3
f 172/6/3 167/6/3 160/6/3
f 173/3/3 170/3/3 169/3/3
f 173/6/3 168/6/3 172/6/3
f 173/3/3 169/3/3 168/3/3
f 173/3/3 171/3/3 170/3/3
f 174/3/3 145/3/3 171/3/3
f 174/3/3 171/3/3 173/3/3
f 175/13/3 147/13/3 146/13/3
f 176/13/3 147/13/3 175/13/3
f 179/13/3 178/13/3 177/13/3
f 180/13/3 178/13/3 179/13/3
f 183/6/3 182/6/3 181/6/3
f 184/6/3 182/6/3 183/6/3
f 187/11/3 186/11/3 185/11/3
f 188/11/3 186/11/3 187/11/3
f 191/11/3 190/11/3 189/11/3
f 192/11/3 190/11/3 191/11/3
f 195/6/3 194/6/3 193/6/3
f 196/6/3 194/6/3 195/6/3
f 199/6/3 198/6/3 197/6/3
f 200/6/3 198/6/3 199/6/3
f 203/6/3 202/6/3 201/6/3
f 204/6/3 202/6/3 203/6/3
f 205/11/4 206/11/4 207/11/4
f 207/11/4 206/11/4 208/11/4
f 209/11/4 210/11/4 211/11/4
f 211/11/4 210/11/4 212/11/4
f 213/6/4 214/6/4 215/6/4
f 215/6/4 214/6/4 216/6/4
f 217/13/4 218/13/4 219/13/4
f 219/13/4 218/13/4 220/13/4
f 221/6/4 222/6/4 223/6/4
f 223/6/4 222/6/4 224/6/4
f 225/6/4 226/6/4 228/6/4
f 228/6/4 226/6/4 229/6/4
f 227/6/4 228/6/4 234/6/4
f 229/6/4 230/6/4 235/6/4
f 227/6/4 234/6/4 236/6/4
f 234/6/4 235/6/4 236/6/4
f 235/6/4 230/6/4 237/6/4
f 236/6/4 235/6/4 237/6/4
f 227/6/4 236/6/4 238/6/4
f 238/6/4 236/6/4 239/6/4
f 237/6/4 230/6/4 240/6/4
f 230/3/4 231/3/4 241/3/4
f 240/6/4 230/6/4 241/6/4
f 241/3/4 231/3/4 242/3/4
f 232/13/4 233/13/4 243/13/4
f 243/13/4 233/13/4 244/13/4
f 239/6/4 240/6/4 245/6/4
f 245/6/4 240/6/4 246/6/4
f 249/3/4 250/3/4 251/3/4
f 251/3/4 250/3/4 252/3/4
f 253/3/4 254/3/4 255/3/4
f 255/3/4 254/3/4 256/3/4
f 247/13/4 248/13/4 257/13/4
f 257/13/4 248/13/4 258/13/4
f 263/11/5 260/11/5 259/11/5
f 264/11/5 260/11/5 263/11/5
f 265/11/5 262/11/5 261/11/5
f 266/11/5 262/11/5 265/11/5
f 269/6/5 268/6/5 267/6/5
f 270/6/5 268/6/5 269/6/5
f 271/6/5 268/6/5 270/6/5
f 272/6/5 268/6/5 271/6/5
f 273/6/5 269/6/5 267/6/5
f 274/6/5 271/6/5 270/6/5
f 275/6/5 271/6/5 274/6/5
f 276/6/5 268/6/5 272/6/5
f 277/6/5 275/6/5 274/6/5
f 277/6/5 276/6/5 275/6/5
f 277/6/5 273/6/5 267/6/5
f 277/6/5 274/6/5 273/6/5
f 278/6/5 268/6/5 276/6/5
f 278/6/5 276/6/5 277/6/5
f 281/14/5 280/14/5 279/14/5
f 282/14/5 280/14/5 281/14/5
f 287/6/5 284/6/5 283/6/5
f 288/6/5 284/6/5 287/6/5
f 291/6/5 286/6/5 285/6/5
f 292/6/5 286/6/5 291/6/5
f 293/3/5 289/3/5 288/3/5
f 294/3/5 289/3/5 293/3/5
f 295/3/5 291/3/5 290/3/5
f 296/3/5 291/3/5 295/3/5
f 301/14/5 298/14/5 297/14/5
f 302/14/5 298/14/5 301/14/5
f 303/14/5 300/14/5 299/14/5
f 304/14/5 300/14/5 303/14/5
f 309/6/5 306/6/5 305/6/5
f 310/6/5 306/6/5 309/6/5
f 311/6/5 308/6/5 307/6/5
f 312/6/5 308/6/5 311/6/5
f 315/14/5 314/14/5 313/14/5
f 316/14/5 314/14/5 315/14/5
f 319/13/5 318/13/5 317/13/5
f 320/13/5 318/13/5 319/13/5
f 321/13/5 319/13/5 317/13/5
f 322/13/5 318/13/5 320/13/5
f 323/13/5 321/13/5 317/13/5
f 323/13/5 322/13/5 321/13/5
f 324/13/5 318/13/5 322/13/5
f 324/13/5 322/13/5 323/13/5
f 325/6/6 326/6/6 329/6/6
f 329/6/6 326/6/6 330/6/6
f 327/6/6 328/6/6 333/6/6
f 333/6/6 328/6/6 334/6/6
f 330/3/6 331/3/6 335/3/6
f 335/3/6 331/3/6 336/3/6
f 332/3/6 333/3/6 337/3/6
f 337/3/6 333/3/6 338/3/6
f 339/14/6 340/14/6 341/14/6
f 341/14/6 340/14/6 342/14/6
f 343/6/6 344/6/6 347/6/6
f 347/6/6 344/6/6 348/6/6
f 345/6/6 346/6/6 349/6/6
f 349/6/6 346/6/6 350/6/6
f 351/14/6 352/14/6 355/14/6
f 355/14/6 352/14/6 356/14/6
f 353/14/6 354/14/6 357/14/6
f 357/14/6 354/14/6 358/14/6
f 359/14/6 360/14/6 361/14/6
f 361/14/6 360/14/6 362/14/6
f 363/13/6 364/13/6 365/13/6
f 365/13/6 364/13/6 366/13/6
f 363/13/6 365/13/6 367/13/6
f 366/13/6 364/13/6 368/13/6
f 363/13/6 367/13/6 369/13/6
f 367/13/6 368/13/6 369/13/6
f 368/13/6 364/13/6 370/13/6
f 369/13/6 368/13/6 370/13/6
f 371/13/6 372/13/6 373/13/6
f 373/13/6 372/13/6 374/13/6
f 371/13/6 373/13/6 375/13/6
f 374/13/6 372/13/6 376/13/6
f 371/13/6 375/13/6 377/13/6
f 375/13/6 376/13/6 377/13/6
f 376/13/6 372/13/6 378/13/6
f 377/13/6 376/13/6 378/13/6
f 379/13/6 380/13/6 381/13/6
f 381/13/6 380/13/6 382/13/6
